<svg xmlns="http://www.w3.org/2000/svg" xmlns:xlink="http://www.w3.org/1999/xlink" version="1.1" x="0px" y="0px" viewBox="0 0 100 113.375" style="enable-background:new 0 0 100 90.7;" xml:space="preserve"><g><path d="M87.7,88.1H11.8c-4,0-7.3-1.6-8.8-4.3c-1.6-2.7-1.3-6.3,0.7-9.8l38-65.7c2-3.5,5-5.5,8.2-5.5c3.2,0,6.1,2,8.2,5.5l38,65.7   c2,3.5,2.3,7.1,0.7,9.8C95,86.5,91.8,88.1,87.7,88.1z M49.8,8.4c-1.1,0-2.3,1-3.2,2.6l-38,65.7c-1,1.7-1.2,3.2-0.7,4.1   s2,1.5,3.9,1.5h75.9c1.9,0,3.4-0.5,3.9-1.5s0.3-2.4-0.7-4.1L53,11C52,9.3,50.9,8.4,49.8,8.4z"/></g><g><g><path d="M44.1,70.9c0-1.6,0.5-2.9,1.5-3.9c1-1,2.4-1.4,4.1-1.4c1.8,0,3.2,0.5,4.2,1.4c1,1,1.5,2.3,1.5,3.9s-0.5,2.9-1.5,3.9    c-1,1-2.4,1.5-4.2,1.5c-1.7,0-3-0.5-4.1-1.5C44.6,73.8,44.1,72.5,44.1,70.9z M45.1,26.3h9.4v23.1l-1.8,11.4h-5.8l-1.8-11.4V26.3z"/></g></g><text x="0" y="105.7" fill="#000000" font-size="5px" font-weight="bold" font-family="'Helvetica Neue', Helvetica, Arial-Unicode, Arial, Sans-serif">Created by lev</text><text x="0" y="110.7" fill="#000000" font-size="5px" font-weight="bold" font-family="'Helvetica Neue', Helvetica, Arial-Unicode, Arial, Sans-serif">from the Noun Project</text></svg>