<svg width="64" height="64" viewBox="0 0 64 64" fill="none" xmlns="http://www.w3.org/2000/svg">
    <defs>
        <filter id="neon-glow-orange" x="-50%" y="-50%" width="200%" height="200%">
            <feGaussianBlur stdDeviation="2.5" result="coloredBlur"/>
            <feMerge>
                <feMergeNode in="coloredBlur"/>
                <feMergeNode in="SourceGraphic"/>
            </feMerge>
        </filter>
        <linearGradient id="orange-gradient" x1="32" y1="0" x2="32" y2="64" gradientUnits="userSpaceOnUse">
            <stop stop-color="#FF8800"/>
            <stop offset="1" stop-color="#FF4400"/>
        </linearGradient>
    </defs>
    
    <!-- Outer Ring (Tech Vibe) -->
    <circle cx="32" cy="32" r="30" stroke="url(#orange-gradient)" stroke-width="2" stroke-opacity="0.5" />
    <path d="M32 2V6M32 58V62M2 32H6M58 32H62" stroke="#FF8800" stroke-width="2" stroke-linecap="round"/>

    <!-- Obstacle Symbol (Warning Triangle) -->
    <g transform="translate(14, 14) scale(0.36)" filter="url(#neon-glow-orange)">
        <!-- Original Path from Obstracle.svg -->
        <path d="M87.7,88.1H11.8c-4,0-7.3-1.6-8.8-4.3c-1.6-2.7-1.3-6.3,0.7-9.8l38-65.7c2-3.5,5-5.5,8.2-5.5c3.2,0,6.1,2,8.2,5.5l38,65.7c2,3.5,2.3,7.1,0.7,9.8C95,86.5,91.8,88.1,87.7,88.1z M49.8,8.4c-1.1,0-2.3,1-3.2,2.6l-38,65.7c-1,1.7-1.2,3.2-0.7,4.1s2,1.5,3.9,1.5h75.9c1.9,0,3.4-0.5,3.9-1.5s0.3-2.4-0.7-4.1L53,11C52,9.3,50.9,8.4,49.8,8.4z" fill="#FF8800"/>
        <path d="M44.1,70.9c0-1.6,0.5-2.9,1.5-3.9c1-1,2.4-1.4,4.1-1.4c1.8,0,3.2,0.5,4.2,1.4c1,1,1.5,2.3,1.5,3.9s-0.5,2.9-1.5,3.9c-1,1-2.4,1.5-4.2,1.5c-1.7,0-3-0.5-4.1-1.5C44.6,73.8,44.1,72.5,44.1,70.9z M45.1,26.3h9.4v23.1l-1.8,11.4h-5.8l-1.8-11.4V26.3z" fill="#FF8800"/>
    </g>
</svg>
